<svg width="24" height="24" viewBox="0 0 24 24" fill="none" xmlns="http://www.w3.org/2000/svg">
<path d="M21.8999 11.29C21.7399 10.96 21.4099 10.75 21.0499 10.75H19.6699L18.4099 6.67C18.1399 5.66 17.2199 5 16.1699 5H7.82994C6.77994 5 5.85994 5.66 5.58994 6.67L4.32994 10.75H2.94994C2.58994 10.75 2.25994 10.96 2.09994 11.29C1.93994 11.62 1.94994 12.02 2.11994 12.34L2.85994 13.8C3.04994 14.16 3.41994 14.39 3.82994 14.39C3.83994 14.39 3.84994 14.39 3.85994 14.39C4.31994 14.38 4.69994 14.05 4.78994 13.6L5.22994 11.75H18.7699L19.2099 13.6C19.2999 14.05 19.6799 14.38 20.1399 14.39C20.1499 14.39 20.1599 14.39 20.1699 14.39C20.5799 14.39 20.9499 14.16 21.1399 13.8L21.8799 12.34C22.0499 12.02 22.0599 11.62 21.8999 11.29ZM7.62994 7.19C7.69994 6.98 7.89994 6.85 8.11994 6.85H15.8799C16.0999 6.85 16.2999 6.98 16.3699 7.19L17.1899 10H6.80994L7.62994 7.19Z" fill="#6C63FF"/>
<path d="M6.5 17C5.67 17 5 17.67 5 18.5C5 19.33 5.67 20 6.5 20C7.33 20 8 19.33 8 18.5C8 17.67 7.33 17 6.5 17Z" fill="#6C63FF"/>
<path d="M17.5 17C16.67 17 16 17.67 16 18.5C16 19.33 16.67 20 17.5 20C18.33 20 19 19.33 19 18.5C19 17.67 18.33 17 17.5 17Z" fill="#6C63FF"/>
</svg>