<svg width="24" height="24" viewBox="0 0 24 24" fill="none" xmlns="http://www.w3.org/2000/svg">
<path d="M11 2C11 1.44772 11.4477 1 12 1C12.5523 1 13 1.44772 13 2V3H14C15.1046 3 16 3.89543 16 5V21C16 21.5523 15.5523 22 15 22H9C8.44772 22 8 21.5523 8 21V5C8 3.89543 8.89543 3 10 3H11V2ZM10 5V20H14V5C14 4.99999 14 5 13 5H11H10ZM6 7C6.55228 7 7 7.44772 7 8V21C7 21.5523 6.55228 22 6 22H3C2.44772 22 2 21.5523 2 21V8C2 7.44772 2.44772 7 3 7H6ZM5 9H4V20H5V9ZM21 7C21.5523 7 22 7.44772 22 8V21C22 21.5523 21.5523 22 21 22H18C17.4477 22 17 21.5523 17 21V8C17 7.44772 17.4477 7 18 7H21ZM20 9H19V20H20V9Z" fill="#6C63FF"/>
</svg>